{
  "source": "C:\\Users\\Peter\\Desktop\\stuff\\MIUN\\quantitative_research\\video_compression\\videos\\BVI-HD\\BVI-HD_CDVL_videos\\ORIG\\Hamster_1920x1080_60fps.mp4",
  "output": "C:\\Users\\Peter\\Desktop\\stuff\\MIUN\\quantitative_research\\video_compression\\compressed_videos\\BVI-HD\\vp9\\1\\Hamster_1920x1080_60fps_vp9.webm",
  "codec": "vp9",
  "ok": "Input #0, mov,mp4,m4a,3gp,3g2,mj2, from 'C:\\Users\\Peter\\Desktop\\stuff\\MIUN\\quantitative_research\\video_compression\\videos\\BVI-HD\\BVI-HD_CDVL_videos\\ORIG\\Hamster_1920x1080_60fps.mp4':\n  Metadata:\n    major_brand     : isom\n    minor_version   : 512\n    compatible_brands: isomiso2avc1mp41\n    encoder         : Lavf54.28.101\n  Duration: 00:00:05.00, start: 0.000000, bitrate: 208485 kb/s\n  Stream #0:0[0x1](und): Video: h264 (High 4:4:4 Predictive) (avc1 / 0x31637661), yuv420p(progressive), 1920x1080, 208481 kb/s, 60 fps, 60 tbr, 60 tbn (default)\n    Metadata:\n      handler_name    : VideoHandler\n      vendor_id       : [0][0][0][0]\n[out#0/webm @ 000001c1a8929780] Codec AVOption b:a (set bitrate (in bits/s)) has not been used for any stream. The most likely reason is either wrong type (e.g. a video option with no video streams) or that it is a private option of some decoder which was not actually used for any stream.\nStream mapping:\n  Stream #0:0 -> #0:0 (h264 (native) -> vp9 (libvpx-vp9))\nPress [q] to stop, [?] for help\n[libvpx-vp9 @ 000001c1aa86a040] v1.15.2-100-g40561f514\nOutput #0, webm, to 'C:\\Users\\Peter\\Desktop\\stuff\\MIUN\\quantitative_research\\video_compression\\compressed_videos\\BVI-HD\\vp9\\1\\Hamster_1920x1080_60fps_vp9.webm':\n  Metadata:\n    major_brand     : isom\n    minor_version   : 512\n    compatible_brands: isomiso2avc1mp41\n    encoder         : Lavf62.3.100\n  Stream #0:0(und): Video: vp9, yuv420p(tv, progressive), 1920x1080, q=2-31, 1000 kb/s, 60 fps, 1k tbn (default)\n    Metadata:\n      encoder         : Lavc62.11.100 libvpx-vp9\n      handler_name    : VideoHandler\n      vendor_id       : [0][0][0][0]\n    Side data:\n      cpb: bitrate max/min/avg: 0/0/0 buffer size: 1000000 vbv_delay: N/A\nframe=    0 fps=0.0 q=0.0 size=       0KiB time=N/A bitrate=N/A speed=N/A elapsed=0:00:00.52    \nframe=    6 fps=5.0 q=57.0 size=       1KiB time=00:00:00.08 bitrate=  60.8kbits/s speed=0.0695x elapsed=0:00:01.19    \nframe=   11 fps=6.2 q=60.0 size=       1KiB time=00:00:00.18 bitrate=  27.6kbits/s speed=0.103x elapsed=0:00:01.77    \nframe=   15 fps=6.4 q=60.0 size=       1KiB time=00:00:00.25 bitrate=  20.3kbits/s speed=0.107x elapsed=0:00:02.33    \nframe=   20 fps=7.0 q=59.0 size=       1KiB time=00:00:00.33 bitrate=  15.2kbits/s speed=0.117x elapsed=0:00:02.86    \nframe=   25 fps=7.4 q=47.0 size=       1KiB time=00:00:00.41 bitrate=  12.2kbits/s speed=0.123x elapsed=0:00:03.37    \nframe=   30 fps=7.7 q=60.0 size=       1KiB time=00:00:00.48 bitrate=  10.5kbits/s speed=0.124x elapsed=0:00:03.89    \nframe=   35 fps=7.9 q=60.0 size=       1KiB time=00:00:00.58 bitrate=   8.7kbits/s speed=0.131x elapsed=0:00:04.44    \nframe=   39 fps=7.8 q=59.0 size=       1KiB time=00:00:00.65 bitrate=   7.8kbits/s speed=0.131x elapsed=0:00:04.96    \nframe=   45 fps=8.2 q=59.0 size=       1KiB time=00:00:00.73 bitrate=   6.9kbits/s speed=0.133x elapsed=0:00:05.49    \nframe=   49 fps=8.1 q=41.0 size=       1KiB time=00:00:00.81 bitrate=   6.2kbits/s speed=0.134x elapsed=0:00:06.08    \nframe=   54 fps=8.1 q=58.0 size=       1KiB time=00:00:00.90 bitrate=   5.6kbits/s speed=0.135x elapsed=0:00:06.64    \nframe=   59 fps=8.2 q=58.0 size=       1KiB time=00:00:00.98 bitrate=   5.1kbits/s speed=0.137x elapsed=0:00:07.18    \nframe=   64 fps=8.2 q=55.0 size=       1KiB time=00:00:01.06 bitrate=   4.7kbits/s speed=0.137x elapsed=0:00:07.76    \nframe=   69 fps=8.3 q=59.0 size=       1KiB time=00:00:01.15 bitrate=   4.4kbits/s speed=0.138x elapsed=0:00:08.32    \nframe=   73 fps=8.2 q=41.0 size=       1KiB time=00:00:01.21 bitrate=   4.2kbits/s speed=0.137x elapsed=0:00:08.90    \nframe=   79 fps=8.4 q=62.0 size=       1KiB time=00:00:01.31 bitrate=   3.8kbits/s speed=0.139x elapsed=0:00:09.45    \nframe=   84 fps=8.4 q=62.0 size=       1KiB time=00:00:01.40 bitrate=   3.6kbits/s speed=0.14x elapsed=0:00:09.98    \nframe=   89 fps=8.5 q=62.0 size=       1KiB time=00:00:01.46 bitrate=   3.5kbits/s speed=0.14x elapsed=0:00:10.49    \nframe=   93 fps=8.4 q=62.0 size=       1KiB time=00:00:01.55 bitrate=   3.3kbits/s speed=0.14x elapsed=0:00:11.07    \nframe=   97 fps=8.3 q=47.0 size=       1KiB time=00:00:01.61 bitrate=   3.1kbits/s speed=0.139x elapsed=0:00:11.62    \nframe=  102 fps=8.4 q=61.0 size=       1KiB time=00:00:01.70 bitrate=   3.0kbits/s speed=0.14x elapsed=0:00:12.18    \nframe=  106 fps=8.3 q=61.0 size=       1KiB time=00:00:01.76 bitrate=   2.9kbits/s speed=0.139x elapsed=0:00:12.72    \nframe=  110 fps=8.3 q=62.0 size=       1KiB time=00:00:01.83 bitrate=   2.8kbits/s speed=0.138x elapsed=0:00:13.24    \nframe=  115 fps=8.4 q=61.0 size=       1KiB time=00:00:01.91 bitrate=   2.6kbits/s speed=0.139x elapsed=0:00:13.76    \nframe=  120 fps=8.4 q=60.0 size=       1KiB time=00:00:02.00 bitrate=   2.5kbits/s speed=0.14x elapsed=0:00:14.29    \nframe=  124 fps=8.4 q=60.0 size=       1KiB time=00:00:02.06 bitrate=   2.5kbits/s speed=0.139x elapsed=0:00:14.83    \nframe=  128 fps=8.3 q=60.0 size=       1KiB time=00:00:02.13 bitrate=   2.4kbits/s speed=0.139x elapsed=0:00:15.36    \nframe=  134 fps=8.4 q=59.0 size=     234KiB time=00:00:02.21 bitrate= 864.2kbits/s speed=0.139x elapsed=0:00:15.90    \nframe=  139 fps=8.4 q=59.0 size=     234KiB time=00:00:02.31 bitrate= 826.9kbits/s speed=0.141x elapsed=0:00:16.47    \nframe=  144 fps=8.5 q=59.0 size=     234KiB time=00:00:02.40 bitrate= 798.2kbits/s speed=0.141x elapsed=0:00:16.99    \nframe=  148 fps=8.4 q=59.0 size=     234KiB time=00:00:02.46 bitrate= 776.6kbits/s speed=0.141x elapsed=0:00:17.53    \nframe=  153 fps=8.5 q=58.0 size=     234KiB time=00:00:02.55 bitrate= 751.2kbits/s speed=0.141x elapsed=0:00:18.07    \nframe=  158 fps=8.5 q=57.0 size=     234KiB time=00:00:02.63 bitrate= 727.5kbits/s speed=0.141x elapsed=0:00:18.61    \nframe=  165 fps=8.6 q=60.0 size=     234KiB time=00:00:02.73 bitrate= 700.8kbits/s speed=0.143x elapsed=0:00:19.15    \nframe=  171 fps=8.7 q=60.0 size=     234KiB time=00:00:02.85 bitrate= 672.2kbits/s speed=0.145x elapsed=0:00:19.70    \nframe=  175 fps=8.7 q=59.0 size=     234KiB time=00:00:02.90 bitrate= 660.6kbits/s speed=0.143x elapsed=0:00:20.21    \nframe=  178 fps=8.6 q=58.0 size=     234KiB time=00:00:02.96 bitrate= 645.7kbits/s speed=0.143x elapsed=0:00:20.77    \nframe=  183 fps=8.6 q=60.0 size=     234KiB time=00:00:03.05 bitrate= 628.1kbits/s speed=0.143x elapsed=0:00:21.31    \nframe=  187 fps=8.6 q=60.0 size=     234KiB time=00:00:03.11 bitrate= 614.6kbits/s speed=0.143x elapsed=0:00:21.83    \nframe=  193 fps=8.6 q=59.0 size=     234KiB time=00:00:03.21 bitrate= 595.5kbits/s speed=0.144x elapsed=0:00:22.39    \nframe=  199 fps=8.7 q=60.0 size=     234KiB time=00:00:03.31 bitrate= 577.6kbits/s speed=0.145x elapsed=0:00:22.94    \nframe=  205 fps=8.7 q=62.0 size=     234KiB time=00:00:03.41 bitrate= 560.7kbits/s speed=0.145x elapsed=0:00:23.49    \nframe=  210 fps=8.7 q=62.0 size=     234KiB time=00:00:03.50 bitrate= 547.3kbits/s speed=0.146x elapsed=0:00:24.01    \nframe=  215 fps=8.8 q=63.0 size=     234KiB time=00:00:03.56 bitrate= 537.1kbits/s speed=0.145x elapsed=0:00:24.53    \nframe=  221 fps=8.8 q=63.0 size=     234KiB time=00:00:03.68 bitrate= 520.1kbits/s speed=0.147x elapsed=0:00:25.07    \nframe=  224 fps=8.7 q=50.0 size=     234KiB time=00:00:03.73 bitrate= 513.1kbits/s speed=0.146x elapsed=0:00:25.62    \nframe=  229 fps=8.8 q=63.0 size=     234KiB time=00:00:03.81 bitrate= 501.9kbits/s speed=0.146x elapsed=0:00:26.15    \nframe=  234 fps=8.8 q=63.0 size=     234KiB time=00:00:03.90 bitrate= 491.2kbits/s speed=0.146x elapsed=0:00:26.68    \nframe=  240 fps=8.8 q=63.0 size=     234KiB time=00:00:04.00 bitrate= 478.9kbits/s speed=0.147x elapsed=0:00:27.21    \nframe=  244 fps=8.8 q=63.0 size=     234KiB time=00:00:04.05 bitrate= 473.0kbits/s speed=0.146x elapsed=0:00:27.75    \nframe=  248 fps=8.8 q=63.0 size=     234KiB time=00:00:04.13 bitrate= 463.5kbits/s speed=0.146x elapsed=0:00:28.31    \nframe=  254 fps=8.8 q=62.0 size=     234KiB time=00:00:04.21 bitrate= 454.3kbits/s speed=0.146x elapsed=0:00:28.84    \nframe=  259 fps=8.8 q=60.0 size=     256KiB time=00:00:04.31 bitrate= 485.8kbits/s speed=0.147x elapsed=0:00:29.39    \nframe=  264 fps=8.8 q=60.0 size=     256KiB time=00:00:04.40 bitrate= 476.6kbits/s speed=0.147x elapsed=0:00:29.94    \nframe=  269 fps=8.8 q=42.0 size=     256KiB time=00:00:04.48 bitrate= 467.8kbits/s speed=0.147x elapsed=0:00:30.48    \nframe=  276 fps=8.9 q=60.0 size=     256KiB time=00:00:04.60 bitrate= 455.9kbits/s speed=0.148x elapsed=0:00:31.00    \nframe=  276 fps=8.8 q=60.0 size=     256KiB time=00:00:04.60 bitrate= 455.9kbits/s speed=0.146x elapsed=0:00:31.52    \nframe=  276 fps=8.6 q=60.0 size=     256KiB time=00:00:04.60 bitrate= 455.9kbits/s speed=0.143x elapsed=0:00:32.05    \nframe=  276 fps=8.5 q=60.0 size=     256KiB time=00:00:04.60 bitrate= 455.9kbits/s speed=0.141x elapsed=0:00:32.59    \nframe=  276 fps=8.3 q=60.0 size=     256KiB time=00:00:04.60 bitrate= 455.9kbits/s speed=0.139x elapsed=0:00:33.11    \n[out#0/webm @ 000001c1a8929780] video:594KiB audio:0KiB subtitle:0KiB other streams:0KiB global headers:0KiB muxing overhead: 0.464590%\nframe=  300 fps=9.0 q=57.0 Lsize=     597KiB time=00:00:05.00 bitrate= 977.8kbits/s speed=0.149x elapsed=0:00:33.48    \n",
  "seconds": 34.04945516586304,
  "probe_out": {}
}